<svg width="80" height="77" viewBox="0 0 80 77" fill="none" xmlns="http://www.w3.org/2000/svg">
<path d="M40 45.3359C43.935 45.3359 47.125 42.3054 47.125 38.5672C47.125 34.8289 43.935 31.7984 40 31.7984C36.065 31.7984 32.875 34.8289 32.875 38.5672C32.875 42.3054 36.065 45.3359 40 45.3359Z" fill="#F00004"/>
<path d="M67.0625 27.4046C65.6875 26.9296 64.25 26.4547 62.75 26.039C63.125 24.614 63.4375 23.189 63.6875 21.8234C65 13.9859 63.5625 8.46403 59.5625 6.32653C58.375 5.6734 57.0625 5.37653 55.5625 5.37653C51.1875 5.37653 45.625 8.46403 40 13.6297C34.375 8.46403 28.8125 5.37653 24.4375 5.37653C22.9375 5.37653 21.625 5.6734 20.4375 6.32653C16.4375 8.5234 15 14.0453 16.3125 21.8234C16.5625 23.189 16.875 24.614 17.25 26.039C15.75 26.4547 14.3125 26.8703 12.9375 27.4046C5.125 30.2546 0.875 34.1734 0.875 38.5672C0.875 42.9609 5.1875 46.8797 12.9375 49.7296C14.3125 50.2047 15.75 50.6796 17.25 51.0953C16.875 52.5203 16.5625 53.9453 16.3125 55.3109C15 63.1484 16.4375 68.6703 20.4375 70.8078C21.625 71.4609 22.9375 71.7578 24.4375 71.7578C28.875 71.7578 34.4375 68.6703 40 63.5046C45.625 68.6703 51.1875 71.7578 55.5625 71.7578C57.0625 71.7578 58.375 71.4609 59.5625 70.8078C63.5625 68.6109 65 63.089 63.6875 55.3109C63.4375 53.9453 63.125 52.5203 62.75 51.0953C64.25 50.6796 65.6875 50.264 67.0625 49.7296C74.875 46.8797 79.125 42.9609 79.125 38.5672C79.125 34.1734 74.875 30.2546 67.0625 27.4046ZM57.8125 9.29528C60.375 10.7203 61.25 15.114 60.1875 21.3484C60 22.5953 59.6875 23.9015 59.3125 25.2671C56.0625 24.5546 52.625 24.0796 49 23.7828C46.875 20.9328 44.6875 18.3796 42.5 16.064C47.125 11.7297 51.8125 8.7609 55.625 8.7609C56.4375 8.7609 57.1875 8.93903 57.8125 9.29528ZM50.8125 44.5046C49.6875 46.4046 48.375 48.3046 47 50.2046C44.6875 50.3828 42.375 50.4421 40 50.4421C37.5625 50.4421 35.25 50.3828 33 50.2046C31.625 48.3046 30.375 46.4046 29.25 44.5046C28.0625 42.5453 26.9375 40.5265 25.9375 38.5672C26.9375 36.6078 28.0625 34.589 29.25 32.6296C30.375 30.7296 31.6875 28.8297 33.0625 26.9297C35.375 26.7515 37.6875 26.6922 40.0625 26.6922C42.5 26.6922 44.8125 26.7515 47.0625 26.9297C48.4375 28.8297 49.6875 30.7296 50.8125 32.6296C52 34.589 53.125 36.6078 54.125 38.5672C53.0625 40.5265 52 42.4859 50.8125 44.5046ZM56 42.5453C56.9375 44.6234 57.6875 46.6421 58.375 48.6609C56.25 49.1359 54 49.4921 51.625 49.789C52.375 48.6609 53.1875 47.4734 53.875 46.2265C54.625 44.9796 55.3125 43.7328 56 42.5453ZM40 58.6359C38.5 57.0921 37.0625 55.4296 35.6875 53.7078C37.125 53.7671 38.5625 53.8265 40 53.8265C41.4375 53.8265 42.875 53.7671 44.3125 53.7078C42.9375 55.4296 41.5 57.0921 40 58.6359ZM28.375 49.7296C26 49.4328 23.75 49.0765 21.625 48.6015C22.3125 46.6421 23.0625 44.564 24 42.4859C24.6875 43.6734 25.375 44.9203 26.125 46.1078C26.875 47.414 27.625 48.5421 28.375 49.7296ZM24 34.589C23.0625 32.5109 22.3125 30.4921 21.625 28.4734C23.75 27.9984 26 27.6421 28.375 27.3453C27.625 28.4734 26.8125 29.6609 26.125 30.9078C25.375 32.1546 24.6875 33.4015 24 34.589ZM40 18.4984C41.5 20.0421 42.9375 21.7046 44.3125 23.4265C42.875 23.3671 41.4375 23.3078 40 23.3078C38.5625 23.3078 37.125 23.3671 35.6875 23.4265C37.0625 21.7046 38.5 20.0421 40 18.4984ZM53.875 30.9671L51.625 27.4046C54 27.7015 56.25 28.0578 58.375 28.5328C57.6875 30.4921 56.9375 32.5703 56 34.6484C55.3125 33.4015 54.625 32.1546 53.875 30.9671ZM19.8125 21.3484C18.75 15.114 19.625 10.7203 22.1875 9.29528C22.8125 8.93903 23.5625 8.7609 24.375 8.7609C28.125 8.7609 32.8125 11.6703 37.5 16.064C35.3125 18.3203 33.125 20.9328 31 23.7828C27.375 24.0796 23.9375 24.614 20.6875 25.2671C20.3125 23.9015 20.0625 22.5953 19.8125 21.3484ZM4.375 38.5672C4.375 35.7765 7.9375 32.8078 14.1875 30.6109C15.4375 30.1359 16.8125 29.7203 18.1875 29.364C19.1875 32.3328 20.4375 35.4796 21.9375 38.6265C20.4375 41.7734 19.125 44.8609 18.1875 47.8296C9.5625 45.4546 4.375 41.8921 4.375 38.5672ZM22.1875 67.839C19.625 66.414 18.75 62.0203 19.8125 55.7859C20 54.539 20.3125 53.2328 20.6875 51.8671C23.9375 52.5796 27.375 53.0546 31 53.3515C33.125 56.2015 35.3125 58.7546 37.5 61.0703C32.875 65.4046 28.1875 68.3734 24.375 68.3734C23.5625 68.3734 22.8125 68.1953 22.1875 67.839ZM60.1875 55.7859C61.25 62.0203 60.375 66.414 57.8125 67.839C57.1875 68.1953 56.4375 68.3734 55.625 68.3734C51.875 68.3734 47.1875 65.464 42.5 61.0703C44.6875 58.814 46.875 56.2015 49 53.3515C52.625 53.0546 56.0625 52.5203 59.3125 51.8671C59.6875 53.2328 59.9375 54.539 60.1875 55.7859ZM65.8125 46.5234C64.5625 46.9984 63.1875 47.414 61.8125 47.7703C60.8125 44.8015 59.5625 41.6546 58.0625 38.5078C59.5625 35.3609 60.875 32.2734 61.8125 29.3046C70.4375 31.6796 75.625 35.2421 75.625 38.5672C75.625 41.3578 72 44.3265 65.8125 46.5234Z" fill="#F00004"/>
</svg>
