<svg width="50" height="50" viewBox="0 0 50 50" fill="none" xmlns="http://www.w3.org/2000/svg">
<path d="M36.5979 32.4671C36.5582 32.4628 30.8026 32.6326 29.9469 26.4648C30.8978 25.8014 31.7741 24.94 32.5462 23.8949C34.0481 21.8617 35.0159 19.3111 35.3606 16.5522C35.4791 16.4451 35.5771 16.3118 35.6432 16.1547C36.2669 14.6688 36.5832 13.0823 36.5832 11.439C36.5832 5.13154 31.8253 0 25.9767 0C24.4471 0 22.9631 0.352344 21.5615 1.04814C21.0269 1.08896 20.5029 1.18301 20.0005 1.32812C17.5984 2.02217 15.6438 3.80313 14.4964 6.34316C13.3825 8.80937 13.163 11.7126 13.8784 14.5182C14.0296 15.1108 14.2218 15.6933 14.4497 16.2497C14.5114 16.4002 14.6034 16.5286 14.7139 16.6343C15.2723 20.9404 17.3212 24.5083 20.1149 26.4562C19.2565 32.6345 13.503 32.463 13.4634 32.4673C9.32451 32.6077 6 36.0162 6 40.1887V48.8743C6 49.4961 6.504 50.0001 7.12578 50.0001H17.0116H33.0494H42.9354C43.5571 50.0001 44.0613 49.4961 44.0613 48.8743V40.1887C44.0612 36.016 40.737 32.6074 36.5979 32.4671ZM20.6256 3.49131C21.0364 3.37256 21.4703 3.30215 21.9152 3.28213C22.0804 3.27471 22.2418 3.23105 22.3882 3.1541C23.5279 2.55527 24.7353 2.25166 25.9768 2.25166C30.5836 2.25166 34.3316 6.37305 34.3316 11.439C34.3316 11.591 34.3273 11.7423 34.3207 11.893C33.4271 10.9855 32.1856 10.4216 30.8146 10.4216H23.1417C22.6852 10.4216 22.2519 10.2782 21.8885 10.0069C21.5782 9.77539 21.3384 9.46416 21.1951 9.10693C20.9732 8.55439 20.4262 8.20879 19.8307 8.24619C19.233 8.28428 18.7301 8.69932 18.5791 9.2793C18.1345 10.9879 17.2479 12.5617 16.0314 13.838C14.8996 9.17988 16.9423 4.55547 20.6256 3.49131ZM19.6461 22.9629C18.1812 21.1732 17.2218 18.7565 16.9177 16.1107C18.3383 14.8446 19.4613 13.269 20.1925 11.5214C20.3034 11.6237 20.4199 11.7205 20.5416 11.8114C21.2971 12.3752 22.1961 12.6733 23.1418 12.6733H30.8147C31.9004 12.6733 32.8361 13.3245 33.2537 14.2564C33.2536 14.2645 33.2524 14.2721 33.2524 14.2801C33.2524 20.6354 29.5649 25.8058 25.0323 25.8058C23.0597 25.8059 21.1467 24.7962 19.6461 22.9629ZM22.2329 27.5618C23.1254 27.8848 24.0642 28.0575 25.0323 28.0575C25.9928 28.0575 26.9312 27.8903 27.8295 27.5678C28.2417 29.7153 29.4357 31.5871 31.1036 32.8757L25.192 41.2944C25.1534 41.3494 25.0998 41.3772 25.0326 41.3772C24.9655 41.3772 24.9119 41.3493 24.8734 41.2945L18.9604 32.8738C20.6283 31.5838 21.822 29.7106 22.2329 27.5618ZM41.8096 47.7483H33.0494H17.0116H8.25156V40.1885C8.25156 37.1688 10.7083 34.712 13.728 34.712C13.769 34.712 15.5807 34.668 17.0121 34.0175L23.0306 42.5884C23.488 43.2399 24.2364 43.6289 25.0325 43.6289C25.0325 43.6289 25.0325 43.6289 25.0326 43.6289C25.8286 43.6289 26.5771 43.2399 27.0346 42.5884L33.052 34.0188C34.6845 34.7121 36.2922 34.7121 36.3332 34.7121C39.3529 34.7121 41.8096 37.1688 41.8096 40.1886V47.7483Z" fill="#1773BA"/>
</svg>
