<svg width="50" height="50" viewBox="0 0 50 50" fill="none" xmlns="http://www.w3.org/2000/svg">
<path fill-rule="evenodd" clip-rule="evenodd" d="M36.8541 0H13.2016C11.4362 0 10 1.43623 10 3.20156V46.7983C10 48.5637 11.4362 49.9999 13.2016 49.9999H36.854C38.6193 49.9999 40.0556 48.5637 40.0556 46.7983V3.20156C40.0557 1.43623 38.6194 0 36.8541 0ZM37.9213 46.7984C37.9213 47.3869 37.4426 47.8656 36.8541 47.8656H13.2016C12.6131 47.8656 12.1344 47.3869 12.1344 46.7984V3.20156C12.1344 2.61309 12.6131 2.13437 13.2016 2.13437H36.854C37.4425 2.13437 37.9212 2.61309 37.9212 3.20156V46.7984H37.9213ZM22.6063 4.98879C22.6063 5.57662 22.1297 6.05315 21.5419 6.05315C20.9541 6.05315 20.4775 5.57662 20.4775 4.98879C20.4775 4.40097 20.9541 3.92444 21.5419 3.92444C22.1297 3.92444 22.6063 4.40097 22.6063 4.98879ZM29.5767 3.94995H24.6545C24.0945 3.94995 23.6406 4.40386 23.6406 4.96382C23.6406 5.52378 24.0946 5.97769 24.6545 5.97769H29.5767C30.1366 5.97769 30.5905 5.52378 30.5905 4.96382C30.5905 4.40386 30.1366 3.94995 29.5767 3.94995ZM25.0277 40.8333C23.4982 40.8333 22.2539 42.0775 22.2539 43.607C22.2539 45.1365 23.4982 46.3807 25.0277 46.3807C26.5572 46.3807 27.8015 45.1365 27.8015 43.607C27.8015 42.0775 26.5571 40.8333 25.0277 40.8333ZM25.0277 44.4598C24.5574 44.4598 24.1748 44.0772 24.1748 43.607C24.1748 43.1368 24.5574 42.7542 25.0277 42.7542C25.4979 42.7542 25.8806 43.1368 25.8806 43.607C25.8804 44.0772 25.4977 44.4598 25.0277 44.4598ZM25.3168 20.0395C25.7338 19.6229 26.4093 19.6229 26.8262 20.0395C27.2429 20.4563 27.2429 21.1321 26.8261 21.5489L21.6997 26.6753C21.4914 26.8836 21.2182 26.9879 20.9451 26.9879C20.6721 26.9879 20.3989 26.8836 20.1905 26.6752C19.7737 26.2584 19.7737 25.5827 20.1904 25.166L25.3168 20.0395ZM29.865 23.0103C29.4482 22.5937 28.7726 22.5937 28.3556 23.0103L26.3134 25.0525C25.8968 25.4692 25.8968 26.145 26.3135 26.5619C26.5219 26.7702 26.7951 26.8745 27.0681 26.8745C27.3412 26.8745 27.6143 26.7702 27.8227 26.5619L29.8649 24.5197C30.2818 24.1029 30.2818 23.4271 29.865 23.0103ZM15.3237 7.89954H34.731C35.2614 7.89954 35.6914 8.32961 35.6914 8.85999V38.2814C35.6914 38.8118 35.2614 39.2418 34.731 39.2418H15.3237C14.7933 39.2418 14.3633 38.8118 14.3633 38.2814V8.85999C14.3633 8.32952 14.7933 7.89954 15.3237 7.89954ZM16.2841 37.3209H33.7704V9.82053H16.2841V37.3209Z" fill="#1773BA"/>
</svg>
