<svg width="16" height="10" viewBox="0 0 16 10" fill="none" xmlns="http://www.w3.org/2000/svg">
<path fill-rule="evenodd" clip-rule="evenodd" d="M10.6826 0.807518C10.7407 0.749314 10.8097 0.703135 10.8856 0.671627C10.9615 0.640119 11.0429 0.623901 11.1251 0.623901C11.2073 0.623901 11.2888 0.640119 11.3647 0.671627C11.4406 0.703135 11.5096 0.749314 11.5676 0.807518L15.3176 4.55752C15.3758 4.61558 15.422 4.68455 15.4535 4.76048C15.485 4.83641 15.5013 4.91781 15.5013 5.00002C15.5013 5.08223 15.485 5.16363 15.4535 5.23956C15.422 5.31549 15.3758 5.38446 15.3176 5.44252L11.5676 9.19252C11.4503 9.30988 11.2911 9.37581 11.1251 9.37581C10.9592 9.37581 10.8 9.30988 10.6826 9.19252C10.5653 9.07516 10.4994 8.91599 10.4994 8.75002C10.4994 8.58405 10.5653 8.42488 10.6826 8.30752L13.9914 5.00002L10.6826 1.69252C10.6244 1.63446 10.5783 1.56549 10.5468 1.48956C10.5152 1.41363 10.499 1.33223 10.499 1.25002C10.499 1.16781 10.5152 1.08641 10.5468 1.01048C10.5783 0.934545 10.6244 0.865575 10.6826 0.807518Z" fill="#1773BA"/>
<path fill-rule="evenodd" clip-rule="evenodd" d="M0.5 5C0.5 4.83424 0.565848 4.67527 0.683058 4.55806C0.800269 4.44085 0.95924 4.375 1.125 4.375H14.25C14.4158 4.375 14.5747 4.44085 14.6919 4.55806C14.8092 4.67527 14.875 4.83424 14.875 5C14.875 5.16576 14.8092 5.32473 14.6919 5.44194C14.5747 5.55915 14.4158 5.625 14.25 5.625H1.125C0.95924 5.625 0.800269 5.55915 0.683058 5.44194C0.565848 5.32473 0.5 5.16576 0.5 5Z" fill="#1773BA"/>
</svg>
