<svg width="71" height="70" viewBox="0 0 71 70" fill="none" xmlns="http://www.w3.org/2000/svg">
<g clip-path="url(#clip0_154_41)">
<path fill-rule="evenodd" clip-rule="evenodd" d="M59.1463 0.495984C58.4848 -0.165328 57.4129 -0.165328 56.7514 0.495984L52.4403 4.80702C51.779 5.46834 51.779 6.54063 52.4403 7.2018C52.7712 7.53226 53.2046 7.69769 53.6378 7.69769C54.0714 7.69769 54.5045 7.53226 54.8352 7.20167L59.1461 2.89076C59.8074 2.22945 59.8074 1.15716 59.1463 0.495984ZM8.06852 22.7166H1.97466C1.03936 22.7166 0.28125 23.4747 0.28125 24.41C0.28125 25.3453 1.03936 26.1034 1.97466 26.1034H8.06839C9.00382 26.1034 9.76193 25.3453 9.76193 24.41C9.76193 23.4747 9.00382 22.7166 8.06852 22.7166ZM68.4894 22.7166H62.3956C61.4604 22.7166 60.7021 23.4747 60.7021 24.41C60.7021 25.3453 61.4604 26.1034 62.3956 26.1034H68.4894C69.4246 26.1034 70.1828 25.3453 70.1828 24.41C70.1828 23.4747 69.4246 22.7166 68.4894 22.7166ZM12.6511 44.5968C13.3125 43.9355 14.3847 43.9355 15.046 44.5968C15.7073 45.2583 15.7073 46.3306 15.046 46.9917L10.6134 51.4242C10.2828 51.7549 9.8493 51.9202 9.41603 51.9202C8.98277 51.9202 8.54937 51.7549 8.21864 51.4242C7.55733 50.7627 7.55733 49.6906 8.21864 49.0293L12.6511 44.5968ZM13.7132 0.496023L18.0219 4.8046C18.6831 5.46605 18.6831 6.53834 18.0217 7.19966C17.6912 7.53024 17.2576 7.69567 16.8244 7.69567C16.3911 7.69567 15.9577 7.53024 15.627 7.19966L11.3182 2.89094C10.6569 2.22963 10.6569 1.15734 11.3182 0.496023C11.9796 -0.165016 13.0519 -0.165016 13.7132 0.496023ZM62.2464 49.0299L57.8304 44.6134C57.1689 43.9521 56.097 43.9521 55.4354 44.6135C54.7741 45.2748 54.7741 46.3471 55.4354 47.0083L59.8516 51.4245C60.1823 51.7552 60.6157 51.9205 61.049 51.9205C61.4825 51.9205 61.9157 51.7551 62.2464 51.4245C62.9077 50.7633 62.9077 49.691 62.2464 49.0299ZM13.9961 26.812C13.9961 14.5634 23.5226 4.59863 35.2323 4.59863C46.9418 4.59863 56.4683 14.5634 56.4686 26.812C56.4686 32.5064 54.4287 38.6359 50.8721 43.6285C48.1409 47.4628 46.6972 51.7291 46.6972 55.9661V66.6131C46.6972 68.4806 45.1779 69.9999 43.3104 69.9999H27.1544C25.2869 69.9999 23.7676 68.4806 23.7676 66.6131V55.9661C23.7676 51.729 22.324 47.4628 19.5924 43.6285C16.0358 38.6358 13.9961 32.5064 13.9961 26.812ZM27.1541 66.6134H43.3101C43.3116 66.6134 43.3123 66.6134 43.3125 66.6131L43.3105 58.7967H27.1541V61.0116H35.2322C36.1675 61.0116 36.9257 61.7697 36.9257 62.705C36.9257 63.6403 36.1675 64.3984 35.2322 64.3984H27.1541V66.6134ZM30.5929 30.1813L32.8575 35.0194C32.9465 35.2099 32.9996 35.4154 33.0135 35.6251L34.3267 55.4099H36.1378L37.451 35.6251C37.4651 35.4154 37.518 35.2099 37.6072 35.0194L39.8715 30.1813H30.5929ZM43.3171 55.4099C43.4366 50.6506 45.0889 45.9095 48.1135 41.6636C51.2244 37.2966 53.0816 31.7446 53.0813 26.8119C53.0813 16.4308 45.0741 7.98531 35.2319 7.98531C25.3898 7.98531 17.3825 16.4308 17.3825 26.8119C17.3825 31.7443 19.2397 37.2963 22.3506 41.6634C25.3754 45.9094 27.0275 50.6503 27.147 55.4098H30.9322L29.6551 36.1666L26.3968 29.2056C26.1513 28.6811 26.1909 28.0674 26.5017 27.5789C26.8126 27.0904 27.3514 26.7944 27.9306 26.7944H42.5337C43.1129 26.7944 43.6518 27.0904 43.9626 27.5789C44.2735 28.0675 44.313 28.6812 44.0674 29.2057L40.8093 36.1668L39.5322 55.4099H43.3171Z" fill="#1773BA"/>
</g>
<defs>
<clipPath id="clip0_154_41">
<rect width="70" height="70" fill="white" transform="translate(0.232422)"/>
</clipPath>
</defs>
</svg>
