<svg width="50" height="50" viewBox="0 0 50 50" fill="none" xmlns="http://www.w3.org/2000/svg">
<g clip-path="url(#clip0_159_627)">
<path fill-rule="evenodd" clip-rule="evenodd" d="M48.4918 9.85703C48.1055 9.79922 47.7087 9.74307 47.3091 9.68975C47.1077 9.02012 46.8388 8.3709 46.5069 7.7543C46.7515 7.43447 46.9925 7.11406 47.2254 6.79932C47.7425 6.1 47.6677 5.1082 47.0516 4.49238L45.5078 2.94883C44.8917 2.33262 43.8999 2.25791 43.2008 2.7752C42.885 3.00889 42.5646 3.2498 42.2458 3.49346C41.6293 3.16162 40.9802 2.89268 40.3104 2.69121C40.2569 2.2916 40.201 1.89482 40.1432 1.50859C40.0145 0.648633 39.2604 0 38.3892 0H36.206C35.3347 0 34.5806 0.648633 34.452 1.5085C34.3942 1.89453 34.3382 2.29141 34.2848 2.69111C33.6149 2.89258 32.9657 3.16152 32.3493 3.49336C32.0307 3.24961 31.7102 3.00859 31.3944 2.7751C30.6951 2.25781 29.7033 2.33252 29.0874 2.94863L27.5438 4.49209C26.9276 5.10811 26.8527 6.1 27.37 6.79941C27.6027 7.11406 27.8438 7.43457 28.0882 7.7543C27.7565 8.3708 27.4875 9.01992 27.286 9.68975C26.8865 9.74316 26.4896 9.79922 26.1034 9.85703C25.2434 9.98574 24.5947 10.7397 24.5947 11.6111V13.7942C24.5947 14.6655 25.2432 15.4196 26.1032 15.5483C26.4896 15.6062 26.8863 15.6623 27.2859 15.7156C27.4874 16.3854 27.7563 17.0345 28.0881 17.6511C27.8438 17.9706 27.6028 18.2909 27.3696 18.6061C26.8526 19.3052 26.9273 20.2972 27.5435 20.9129L29.0872 22.4566C29.7032 23.0729 30.695 23.1475 31.3942 22.6303C31.7101 22.3968 32.0304 22.1557 32.3491 21.9121C32.9658 22.2439 33.615 22.5129 34.2847 22.7143C34.3379 23.1138 34.394 23.5106 34.4519 23.897C34.5806 24.7569 35.3347 25.4056 36.206 25.4056H38.3892C39.2604 25.4056 40.0145 24.7571 40.1432 23.8969C40.2009 23.5105 40.2569 23.1138 40.3104 22.7142C40.9801 22.5129 41.6292 22.2438 42.2458 21.9119C42.5645 22.1557 42.885 22.3967 43.2007 22.6303C43.8998 23.1476 44.8918 23.0729 45.5077 22.4567L47.0515 20.9132C47.6676 20.2972 47.7424 19.3053 47.2251 18.606C46.9921 18.2909 46.7511 17.9704 46.5069 17.6512C46.8386 17.0347 47.1076 16.3856 47.3091 15.7157C47.7086 15.6623 48.1055 15.6063 48.4917 15.5484C49.3518 15.4197 50.0004 14.6657 50.0004 13.7943V11.6112C50.0003 10.7398 49.3518 9.98574 48.4918 9.85703ZM47.8741 13.4904C47.5233 13.5413 47.1654 13.5907 46.8064 13.6375C46.0961 13.7302 45.5146 14.2343 45.3254 14.9216C45.144 15.5797 44.8809 16.2147 44.5433 16.8091C44.1906 17.4295 44.245 18.1973 44.6818 18.7653C44.9021 19.0517 45.1205 19.3398 45.3331 19.6246L44.2194 20.7384C43.9338 20.5252 43.6456 20.3068 43.3599 20.0871C42.7921 19.6501 42.0241 19.5961 41.4036 19.9483C40.8092 20.286 40.1741 20.5492 39.5164 20.7306C38.8287 20.92 38.3246 21.5015 38.2322 22.2115C38.1854 22.5706 38.1361 22.9286 38.0852 23.2794H36.51C36.4591 22.9286 36.4098 22.5707 36.3629 22.2119C36.2702 21.5016 35.7662 20.9201 35.0787 20.7307C34.4208 20.5494 33.7859 20.2862 33.1913 19.9485C32.5708 19.596 31.8028 19.6502 31.2352 20.0871C30.9493 20.3069 30.6613 20.5252 30.3755 20.7384L29.2618 19.6246C29.4744 19.3396 29.6928 19.0516 29.9133 18.7649C30.3498 18.1971 30.4042 17.4293 30.0517 16.8089C29.7141 16.2146 29.4509 15.5794 29.2695 14.9215C29.0802 14.234 28.4988 13.73 27.7886 13.6373C27.4295 13.5904 27.0715 13.5412 26.7207 13.4901V11.9151C27.0715 11.8643 27.4294 11.8148 27.7885 11.7681C28.4987 11.6754 29.0802 11.1713 29.2694 10.484C29.4508 9.82598 29.7139 9.19092 30.0516 8.59648C30.4042 7.97607 30.3498 7.2082 29.9132 6.64033C29.6926 6.35361 29.4742 6.06553 29.2618 5.78096L30.3755 4.66719C30.6611 4.88037 30.9492 5.09873 31.2349 5.31836C31.8024 5.75537 32.5703 5.80986 33.1913 5.45723C33.7855 5.11963 34.4207 4.85645 35.0785 4.675C35.7662 4.48555 36.2703 3.9041 36.3627 3.19404C36.4096 2.83496 36.459 2.47705 36.5099 2.12627H38.0851C38.1359 2.47695 38.1853 2.83486 38.232 3.19375C38.3247 3.9041 38.8288 4.48555 39.5162 4.6749C40.1742 4.85625 40.8094 5.11953 41.4037 5.45713C42.0243 5.80977 42.7922 5.75498 43.3598 5.31846C43.6456 5.09873 43.9336 4.88037 44.2194 4.66719L45.3331 5.78096C45.1207 6.06562 44.9023 6.35381 44.6817 6.64062C44.2451 7.2084 44.1908 7.97617 44.5432 8.59658C44.8808 9.19111 45.1439 9.82627 45.3253 10.4841C45.5146 11.1716 46.096 11.6756 46.8063 11.7683C47.1653 11.8151 47.5233 11.8645 47.8741 11.9154V13.4904ZM30.5089 35.0643C31.0485 35.3756 31.588 35.6932 32.1137 36.0091C32.9944 36.5384 33.3615 37.6553 32.9675 38.6069L31.818 41.3822C31.4238 42.334 30.3744 42.8644 29.3773 42.6156C28.7839 42.4678 28.1779 42.3109 27.5745 42.1491C26.9001 43.0029 26.1268 43.7764 25.2744 44.4501C25.4371 45.0573 25.594 45.6632 25.7408 46.2523C25.9893 47.2495 25.4588 48.2988 24.5075 48.693L21.7323 49.8425C20.7804 50.2366 19.6636 49.8697 19.1341 48.9889C18.8177 48.4622 18.5002 47.923 18.1898 47.3847C17.1105 47.5109 16.0168 47.5107 14.9363 47.3841C14.622 47.9286 14.3045 48.468 13.9915 48.9888C13.6051 49.631 12.9067 50 12.1877 50C11.9207 50 11.6509 49.949 11.3931 49.8423L8.61781 48.6927C7.66624 48.2985 7.13597 47.2492 7.3845 46.2521C7.53206 45.6597 7.689 45.0536 7.85111 44.4492C6.9973 43.7748 6.22396 43.0018 5.55003 42.1491C4.94603 42.3112 4.34017 42.4681 3.74798 42.6155C2.75013 42.8642 1.7014 42.3336 1.30726 41.3821L0.157649 38.6069C-0.236492 37.6552 0.130598 36.5384 1.01126 36.009C1.53558 35.694 2.07484 35.3765 2.61566 35.0645C2.48919 33.985 2.48949 32.8916 2.61624 31.8109C2.07591 31.4991 1.53636 31.1815 1.01146 30.8661C0.130793 30.3368 -0.236296 29.2199 0.157746 28.2683L1.30706 25.4932C1.7013 24.5417 2.75032 24.0109 3.74779 24.2597C4.33968 24.4071 4.94573 24.564 5.55081 24.7264C6.22503 23.8726 6.99827 23.099 7.85091 22.4253C7.68929 21.8232 7.53245 21.2173 7.3845 20.6231C7.13597 19.6259 7.66644 18.5766 8.61781 18.1824L11.393 17.0329C12.3447 16.6387 13.4615 17.0057 13.9911 17.8865C14.3053 18.4092 14.6228 18.9485 14.9355 19.4906C16.0149 19.3642 17.1082 19.3645 18.189 19.4913C18.5007 18.9509 18.8184 18.4113 19.1337 17.8865C19.6632 17.0055 20.7803 16.6386 21.7319 17.0329L24.5071 18.1824C25.4586 18.5767 25.9889 19.6259 25.7404 20.6231C25.5927 21.2161 25.4357 21.8222 25.2738 22.4259C26.1276 23.1002 26.9009 23.8733 27.5748 24.7261C28.1785 24.5642 28.7842 24.4072 29.3771 24.2597C30.3747 24.0111 31.4236 24.5415 31.8178 25.4931L32.9673 28.2683L32.9674 28.2684C33.3616 29.2202 32.9944 30.337 32.1135 30.8663C31.5904 31.1809 31.0511 31.4982 30.5095 31.8107C30.6361 32.8897 30.6358 33.9832 30.5089 35.0643ZM28.0677 39.9641C28.6454 40.1197 29.2265 40.2707 29.7965 40.4135L30.8529 37.8623C30.3474 37.5594 29.8298 37.2555 29.3126 36.9577C28.5786 36.5352 28.1717 35.7214 28.2758 34.8844C28.3955 33.9224 28.3957 32.9479 28.2763 31.9882C28.1723 31.1521 28.5794 30.3389 29.3133 29.9163C29.8323 29.6175 30.3496 29.3137 30.8529 29.012L29.7963 26.4611C29.2271 26.6038 28.6464 26.7548 28.0684 26.9105C27.2502 27.1306 26.3876 26.8434 25.8701 26.1786C25.2755 25.4153 24.5865 24.7265 23.8219 24.1313C23.1564 23.6132 22.8686 22.7499 23.0888 21.9321C23.2446 21.3539 23.3955 20.773 23.5383 20.2033L20.9873 19.1468C20.685 19.6514 20.381 20.169 20.0828 20.6869C19.6604 21.4208 18.8469 21.828 18.0095 21.7237C17.0473 21.6038 16.073 21.6038 15.1133 21.7232C14.2781 21.8278 13.4641 21.4202 13.0414 20.6863C12.7423 20.1667 12.4384 19.6493 12.1372 19.1468L9.58626 20.2033C9.72933 20.774 9.88031 21.3547 10.0356 21.9313C10.2558 22.749 9.96859 23.612 9.30374 24.1297C8.54056 24.724 7.85159 25.4131 7.25638 26.1777C6.73802 26.8433 5.87474 27.1312 5.05716 26.9108C4.47767 26.7549 3.89681 26.6039 3.32845 26.4614L2.27181 29.0123C2.7765 29.3149 3.29407 29.6189 3.81204 29.9171C4.54632 30.3398 4.95306 31.1537 4.84876 31.9906C4.72933 32.9521 4.72904 33.9265 4.84847 34.8866C4.95238 35.7228 4.54534 36.5359 3.81146 36.9584C3.29329 37.2567 2.77581 37.5606 2.27191 37.8627L3.32855 40.4136C3.8974 40.271 4.47816 40.12 5.05657 39.9643C5.87435 39.7441 6.73724 40.0313 7.25482 40.6962C7.84935 41.4595 8.53831 42.1483 9.30296 42.7436C9.96849 43.2616 10.2563 44.1249 10.0361 44.9428C9.88021 45.5214 9.72923 46.1024 9.58656 46.6714L12.1375 47.728C12.4376 47.2272 12.7415 46.7096 13.0421 46.1877C13.4646 45.4537 14.2772 45.0471 15.1156 45.1512C16.0769 45.2708 17.0514 45.2709 18.0115 45.1517C18.8475 45.0481 19.6608 45.4548 20.0833 46.1886C20.3803 46.7046 20.6841 47.2219 20.9875 47.7281L23.5385 46.6716C23.3966 46.1056 23.2457 45.5249 23.0892 44.9435C22.869 44.126 23.1562 43.2631 23.8209 42.7453C24.5843 42.1509 25.2733 41.4618 25.8686 40.6972C26.3866 40.0316 27.2497 39.744 28.0677 39.9641ZM23.6091 30.5185L23.6092 30.5186C25.2186 34.4043 23.3667 38.8749 19.4812 40.4845C18.5399 40.8743 17.551 41.0692 16.5621 41.0692C15.5733 41.0692 14.5844 40.8743 13.6433 40.4845C11.7611 39.7047 10.2949 38.2388 9.51527 36.3564C7.9057 32.4707 9.75765 28 13.6432 26.3905C17.5294 24.781 21.9997 26.6329 23.6091 30.5185ZM14.4997 38.4167C15.83 38.9675 17.2948 38.9676 18.6246 38.4167C21.3702 37.2794 22.6787 34.1205 21.5415 31.375C20.6827 29.3018 18.6711 28.0479 16.5552 28.0479C15.8691 28.0479 15.1722 28.1797 14.4998 28.4582C11.7542 29.5955 10.4456 32.7544 11.583 35.4999C12.134 36.8299 13.1699 37.8659 14.4997 38.4167ZM32.7656 12.7027C32.7656 10.2041 34.7984 8.17139 37.297 8.17139C39.7956 8.17139 41.8283 10.2041 41.8283 12.7027C41.8283 15.2015 39.7956 17.2342 37.297 17.2342C34.7983 17.2342 32.7656 15.2015 32.7656 12.7027ZM34.7799 12.7026C34.7799 14.0906 35.9092 15.2198 37.297 15.2198C38.6849 15.2198 39.8141 14.0906 39.8141 12.7026C39.814 11.3147 38.6849 10.1855 37.297 10.1855C35.9091 10.1855 34.7799 11.3146 34.7799 12.7026Z" fill="#1773BA"/>
</g>
<defs>
<clipPath id="clip0_159_627">
<rect width="50" height="50" fill="white"/>
</clipPath>
</defs>
</svg>
