<svg width="71" height="70" viewBox="0 0 71 70" fill="none" xmlns="http://www.w3.org/2000/svg">
<g clip-path="url(#clip0_154_78)">
<path fill-rule="evenodd" clip-rule="evenodd" d="M31.0262 38.031C33.5128 38.1255 35.832 39.3738 37.276 41.4168C37.7407 42.0744 37.5846 42.9844 36.9268 43.449C36.6712 43.6296 36.3774 43.7166 36.0864 43.7166C35.6288 43.7166 35.1785 43.5019 34.8944 43.1C33.9375 41.746 32.3781 40.9378 30.7231 40.9378C30.6744 40.9378 30.6263 40.9352 30.5787 40.9305C29.5283 40.8977 28.5226 40.6863 27.5903 40.325L20.6863 50.2894C20.414 50.6826 19.9661 50.9173 19.4877 50.9173C19.0093 50.9173 18.5614 50.6825 18.2891 50.2894L11.3852 40.325C10.4531 40.6863 9.44725 40.8977 8.39684 40.9305C8.34926 40.9352 8.30114 40.9378 8.25246 40.9378C5.43825 40.9378 3.14876 43.2271 3.14876 46.0415V53.2158H27.4554C28.2607 53.2158 28.9136 53.8686 28.9136 54.674C28.9136 55.4794 28.2607 56.1322 27.4554 56.1322H1.69066C0.885253 56.1322 0.232422 55.4794 0.232422 54.674V46.0416C0.232422 41.7155 3.67568 38.181 7.96549 38.0293C8.01307 38.0247 8.0612 38.0221 8.10987 38.0221C11.2756 38.0221 13.8911 35.6276 14.244 32.555C11.4986 30.5588 9.49113 27.0299 8.9135 22.7887C8.80877 22.6697 8.7199 22.5335 8.65647 22.3785C8.42377 21.811 8.22786 21.2168 8.07377 20.6126C6.54239 14.6076 9.37725 8.54299 14.3929 7.09391C14.8934 6.94899 15.4147 6.85329 15.9467 6.80845C17.3697 6.11296 18.8751 5.7605 20.4267 5.7605C26.4262 5.7605 31.3073 11.0127 31.3073 17.4687C31.3073 19.1474 30.984 20.7685 30.3463 22.2869C30.2792 22.4469 30.1857 22.5874 30.0746 22.7081C29.7122 25.4631 28.7347 28.0108 27.2287 30.0496C26.484 31.0578 25.6437 31.8994 24.7331 32.5627C25.0895 35.6314 27.7031 38.0218 30.8661 38.0218C30.9203 38.0218 30.9736 38.0251 31.0262 38.031ZM16.4046 9.70032C15.9891 9.71905 15.5845 9.78467 15.202 9.89514C11.8826 10.8542 9.97813 14.8985 10.7345 19.1266C11.6788 17.9964 12.3733 16.6654 12.7453 15.2363C12.9319 14.5185 13.555 14.0039 14.2954 13.9565C15.0314 13.91 15.7129 14.3382 15.9884 15.0237C16.1078 15.3214 16.3074 15.5803 16.5659 15.7732C16.8679 15.9987 17.2286 16.1179 17.6084 16.1179H25.2344C26.4159 16.1179 27.5068 16.512 28.3837 17.1751C28.2429 12.4627 24.7287 8.67643 20.4262 8.67643C19.2478 8.67643 18.101 8.96518 17.0173 9.53448C16.8276 9.63414 16.6187 9.69075 16.4046 9.70032ZM14.8063 18.0993C14.0867 19.662 13.0559 21.0771 11.7823 22.2446C12.0979 24.7424 13.0133 27.0168 14.3966 28.7065C15.8224 30.4483 17.6304 31.4077 19.4874 31.4077C21.4941 31.4077 23.41 30.3098 24.8826 28.3165C26.4442 26.2027 27.3073 23.373 27.317 20.3437C26.9415 19.5703 26.1503 19.0344 25.2343 19.0344H17.6082C16.595 19.0344 15.6314 18.715 14.8214 18.1104L14.8063 18.0993ZM13.9071 38.8442L19.4876 46.8986L25.0683 38.8441C23.5723 37.6027 22.4814 35.8912 22.0195 33.9391C21.2015 34.1929 20.3534 34.3243 19.4874 34.3243C18.6168 34.3243 17.7694 34.1892 16.9569 33.9349C16.4955 35.8889 15.4042 37.602 13.9071 38.8442ZM62.3555 46.129C62.4042 46.129 62.4523 46.1316 62.4999 46.1363C66.7893 46.2885 70.2325 49.8232 70.2323 54.1487V62.7811C70.2323 63.5865 69.5793 64.2393 68.774 64.2393H33.1799C32.3746 64.2393 31.7217 63.5865 31.7217 62.7811V54.1487C31.7217 49.8229 35.1648 46.288 39.4542 46.136C39.5018 46.1314 39.5499 46.1288 39.5986 46.1288C42.7637 46.1288 45.379 43.7351 45.7326 40.6632C45.1204 40.2198 44.539 39.7 44.0008 39.1024C42.739 37.7016 41.7452 35.9272 41.0951 33.9523C40.9287 34.1867 40.7779 34.4258 40.6606 34.6176C40.3792 35.0777 39.8655 35.345 39.3291 35.3126C38.791 35.2803 38.3145 34.9535 38.0904 34.4631C37.3862 32.9224 36.9086 31.2623 36.6712 29.5288C36.5831 28.9245 36.5287 28.2899 36.5067 27.6007C36.3767 23.533 37.5616 19.6561 39.8432 16.6837C42.191 13.625 45.4136 11.8789 48.917 11.7669C50.6134 11.713 52.2606 12.0433 53.8195 12.7505C53.8842 12.7465 54.2843 12.7327 54.4453 12.7392C57.4794 12.7682 60.3437 14.1711 62.5133 16.6919C64.6324 19.1539 65.8608 22.4345 65.9727 25.929C66.0864 29.4912 65.0289 32.892 62.9944 35.5049C62.7132 35.866 62.2855 36.0674 61.8436 36.0674C61.6997 36.0674 61.5542 36.0459 61.412 36.0019C60.9442 35.8568 60.5886 35.4899 60.4497 35.0354C59.4791 37.4068 58.0066 39.3567 56.2208 40.6572C56.5716 43.7322 59.1882 46.129 62.3555 46.129ZM39.5591 29.1208C39.6399 29.7094 39.7525 30.2854 39.8964 30.8471C41.1171 29.5336 43.0604 28.4386 44.2168 28.0022C45.3875 27.5662 46.6172 27.3259 47.8781 27.2855C48.1351 27.2773 48.3959 27.2777 48.6528 27.2865C50.3643 27.3464 51.9035 26.5341 52.667 25.1689C52.9371 24.6858 53.1723 24.1749 53.3664 23.6505C53.5043 23.2772 53.7887 22.9767 54.1538 22.8185C54.5187 22.6602 54.9324 22.6579 55.2992 22.8121C58.1948 24.0299 60.5648 26.3501 61.9727 29.3456C62.1418 29.7012 62.2955 30.0628 62.4333 30.4301C62.8908 29.0548 63.1068 27.5601 63.0577 26.0224C62.9672 23.1914 61.9888 20.5535 60.303 18.5946C58.6841 16.7139 56.5865 15.6701 54.3963 15.6556C54.3827 15.6554 54.0845 15.6692 53.8565 15.6798C53.7201 15.6861 53.6088 15.6912 53.5984 15.6915C53.3577 15.6984 53.1105 15.6482 52.896 15.5402C51.0272 14.5985 49.1955 14.6744 49.0207 14.6816C49.016 14.6818 49.0126 14.6819 49.0103 14.682C46.3965 14.7655 43.9626 16.107 42.1569 18.4597C40.2846 20.8986 39.3134 24.112 39.4219 27.5077C39.4404 28.0862 39.4852 28.6139 39.5591 29.1208ZM45.241 30.7325C44.6249 30.9653 44.0366 31.2703 43.4837 31.6407C44.4838 36.2519 47.5378 39.5153 50.9708 39.5156C52.8279 39.5156 54.6358 38.5563 56.0617 36.8144C57.5712 34.9706 58.5256 32.4315 58.7493 29.6647C58.7528 29.6201 58.7591 29.5768 58.7665 29.5336C57.9117 28.132 56.7749 26.9771 55.4449 26.1577C55.3699 26.3042 55.2922 26.4492 55.2124 26.5921C53.9134 28.9151 51.3673 30.2973 48.5517 30.2009C48.3592 30.1942 48.164 30.194 47.9712 30.2002C47.0269 30.2305 46.1083 30.4096 45.241 30.7325ZM50.9708 42.4316C50.1141 42.4316 49.2677 42.2963 48.447 42.0398C47.8614 44.5231 46.2557 46.6155 44.0973 47.8496C44.9392 50.8925 47.7374 53.0805 50.9775 53.0805C54.2173 53.0805 57.0157 50.8926 57.8577 47.8499C55.6991 46.6155 54.0933 44.5233 53.5076 42.0401C52.6931 42.2957 51.8436 42.4316 50.9708 42.4316ZM34.6384 61.3232H67.3162V54.1489C67.3162 51.3347 65.0267 49.0452 62.2125 49.0452C62.1638 49.0452 62.1157 49.0426 62.0681 49.038C61.5661 49.0224 61.0738 48.9672 60.5953 48.8728C59.3283 53.0311 55.4527 55.9971 50.9774 55.9971C46.502 55.9971 42.6263 53.0311 41.3596 48.8727C40.881 48.967 40.3887 49.0223 39.8865 49.038C39.8389 49.0426 39.7908 49.0452 39.7421 49.0452C36.9279 49.0452 34.6384 51.3349 34.6384 54.1489V61.3232Z" fill="#1773BA"/>
</g>
<defs>
<clipPath id="clip0_154_78">
<rect width="70" height="70" fill="white" transform="translate(0.232422)"/>
</clipPath>
</defs>
</svg>
