<svg width="36.000000" height="19.000000" viewBox="0 0 36 19" fill="none" xmlns="http://www.w3.org/2000/svg" xmlns:xlink="http://www.w3.org/1999/xlink">
	<desc>
			Created with Pixso.
	</desc>
	<defs/>
	<path id="Vector" d="M33 -0.75L13.5 -0.75C11.85 -0.75 10.5 0.59 10.5 2.25L10.5 15.75C10.5 17.41 11.85 18.75 13.5 18.75L33 18.75C34.66 18.75 36 17.41 36 15.75L36 2.25C36 0.59 34.66 -0.75 33 -0.75ZM33 15.75L13.5 15.75L13.5 4.75L23.25 9.75L33 4.75L33 15.75ZM23.25 7.21L13.5 2.25L33 2.25L23.25 7.21ZM7.5 15.75C7.5 16 7.54 16.24 7.57 16.5L1.5 16.5C0.67 16.5 0 15.82 0 15C0 14.17 0.67 13.5 1.5 13.5L7.5 13.5L7.5 15.75ZM4.5 1.5L7.57 1.5C7.54 1.75 7.5 1.99 7.5 2.25L7.5 4.5L4.5 4.5C3.67 4.5 3 3.82 3 3C3 2.17 3.67 1.5 4.5 1.5ZM1.5 9C1.5 8.17 2.17 7.5 3 7.5L7.5 7.5L7.5 10.5L3 10.5C2.17 10.5 1.5 9.82 1.5 9Z" fill="#FFFFFF" fill-opacity="1.000000" fill-rule="nonzero"/>
</svg>
